<svg width="276" height="431" viewBox="0 0 276 431" fill="none" xmlns="http://www.w3.org/2000/svg">
<path d="M69.2302 91.3683L34.6149 28.1489V91.3683V345.169V369.165L69.2302 345.169V91.3683Z" fill="#F2EBDD"/>
<rect width="110.092" height="34.6107" transform="matrix(0.866064 0.499933 -0.500067 0.865987 40.8459 162.433)" fill="#F2EBDD"/>
<mask id="mask0_297_156" style="mask-type:alpha" maskUnits="userSpaceOnUse" x="144" y="29" width="114" height="342">
<path d="M206.802 92.4379L241.417 29.2184V92.4379V346.239V370.234L206.802 346.239V92.4379Z" fill="#D9D9D9"/>
<rect width="110.092" height="34.6107" transform="matrix(-0.866064 0.499933 0.500067 0.865987 239.84 160.733)" fill="#D9D9D9"/>
</mask>
<g mask="url(#mask0_297_156)">
<rect x="-6.46191" y="-15.1628" width="277.623" height="454.507" fill="url(#paint0_radial_297_156)"/>
</g>
<path d="M276 91.3683L241.385 28.1489V91.3683V345.169V369.165L276 345.169V91.3683Z" fill="#F2EBDD"/>
<path d="M172.615 63.2195L138 0V63.2195V317.02V341.016L172.615 317.02V63.2195Z" fill="#F2EBDD"/>
<path d="M172.615 153.204L138 89.9841V153.204V407.004V431L172.615 407.004V153.204Z" fill="#F2EBDD"/>
<rect width="110.092" height="34.6107" transform="matrix(-0.866064 0.499933 0.500067 0.865987 241.615 198.426)" fill="#F2EBDD"/>
<mask id="mask1_297_156" style="mask-type:alpha" maskUnits="userSpaceOnUse" x="0" y="0" width="139" height="431">
<path d="M0 91.3683L34.6154 28.1489V91.3683V345.169V369.165L0 345.169V91.3683Z" fill="#D9D9D9"/>
<path d="M103.385 63.2195L138 0V63.2195V317.02V341.016L103.385 317.02V63.2195Z" fill="#D9D9D9"/>
<path d="M103.385 153.204L138 89.9841V153.204V407.004V431L103.385 407.004V153.204Z" fill="#D9D9D9"/>
<rect width="110.092" height="34.6107" transform="matrix(0.866064 0.499933 -0.500067 0.865987 34.3843 198.426)" fill="#D9D9D9"/>
</mask>
<g mask="url(#mask1_297_156)">
<rect x="-19.4827" y="-8.11615" width="277.623" height="454.507" fill="url(#paint1_radial_297_156)"/>
</g>
<defs>
<radialGradient id="paint0_radial_297_156" cx="0" cy="0" r="1" gradientUnits="userSpaceOnUse" gradientTransform="translate(235.75 -2.83717) rotate(113.076) scale(480.639 368.549)">
<stop stop-color="#647D5B"/>
<stop offset="0.551421" stop-color="#D6CEA2"/>
<stop offset="1" stop-color="#BD897E"/>
</radialGradient>
<radialGradient id="paint1_radial_297_156" cx="0" cy="0" r="1" gradientUnits="userSpaceOnUse" gradientTransform="translate(222.729 4.20946) rotate(113.076) scale(480.639 368.549)">
<stop stop-color="#647D5B"/>
<stop offset="0.551421" stop-color="#D6CEA2"/>
<stop offset="1" stop-color="#BD897E"/>
</radialGradient>
</defs>
</svg>
